<svg xmlns="http://www.w3.org/2000/svg" width="1036.434" height="272.17" viewBox="0 0 1036.434 272.17"><path d="M248.56 217.914h13.626l10.295 30.272h.125l9.742-30.272h13.627v44.023h-9.065v-31.2h-.122l-10.79 31.2h-7.463l-10.79-30.893h-.123v30.893h-9.063l.001-44.023zm97.857 44.023h-9.62l-7.46-29.968h-.123l-7.338 29.967h-9.803l-11.654-44.023h9.68l6.968 29.964h.122l7.646-29.964h9.065l7.523 30.336h.123l7.213-30.336h9.496l-11.84 44.023.002.001zm33.425-44.023h9.68v44.023h-9.68v-44.023zm17.268 12.146h8.322v4.438h.185c2.22-3.577 6.043-5.302 9.742-5.302 9.31 0 11.652 5.242 11.652 13.135v19.607h-8.755V243.93c0-5.238-1.543-7.827-5.61-7.827-4.75 0-6.783 2.65-6.783 9.125v16.71h-8.755V230.06h.002zm59.316 27.807h-.124c-2.035 3.453-5.609 4.93-9.68 4.93-9.618 0-14.305-8.26-14.305-17.076 0-8.57 4.748-16.523 14.12-16.523 3.76 0 7.46 1.604 9.432 4.746h.124v-16.028h8.755v44.023h-8.324v-4.07l.002-.002zm-7.646-22.073c-5.735 0-7.708 4.93-7.708 10.174 0 4.99 2.279 10.233 7.708 10.233 5.795 0 7.521-5.054 7.521-10.297.001-5.178-1.847-10.11-7.521-10.11zm52.474 26.143h-8.324V257.5h-.185c-2.22 3.573-6.043 5.298-9.743 5.298-9.31 0-11.652-5.24-11.652-13.13V230.06h8.756v18.002c0 5.242 1.543 7.832 5.609 7.832 4.75 0 6.784-2.653 6.784-9.125v-16.71h8.754l.001 31.878zm13.443-10.357c.062 3.82 3.268 5.362 6.72 5.362 2.53 0 5.735-.988 5.735-4.07 0-2.65-3.641-3.577-9.927-4.93-5.057-1.113-10.113-2.9-10.113-8.513 0-8.138 7.029-10.234 13.874-10.234 6.968 0 13.38 2.34 14.058 10.173h-8.323c-.246-3.39-2.836-4.315-5.979-4.315-1.973 0-4.87.368-4.87 2.958 0 3.146 4.933 3.577 9.926 4.747 5.12 1.172 10.113 3.02 10.113 8.94 0 8.388-7.276 11.098-14.553 11.098-7.4 0-14.614-2.773-14.982-11.218h8.322v.002zm37.43-21.52h6.413v5.854h-6.413V251.7c0 2.96.74 3.7 3.7 3.7.924 0 1.786-.062 2.713-.246v6.844c-1.479.247-3.392.308-5.118.308-5.363 0-10.05-1.232-10.05-7.584v-18.807h-5.303v-5.854h5.302v-9.557h8.755l.001 9.556zm10.608 0h8.323v5.92h.12c1.605-4.01 5.92-6.784 10.175-6.784a6.584 6.584 0 0 1 1.91.308v8.14c-.8-.187-2.095-.308-3.144-.308-6.41 0-8.63 4.623-8.63 10.233v14.367h-8.756l.002-31.876zm32.989-4.935h-8.757v-7.212h8.757v7.212zm-8.757 4.935h8.757v31.877h-8.757V230.06zm22.877 18.065c.246 5.548 2.96 8.076 7.83 8.076 3.514 0 6.353-2.156 6.905-4.13h7.707c-2.467 7.522-7.708 10.727-14.922 10.727-10.05 0-16.276-6.903-16.276-16.77 0-9.557 6.597-16.832 16.275-16.832 10.852 0 16.093 9.124 15.477 18.93h-22.998l.002-.001zm14.243-5.55c-.802-4.438-2.713-6.78-6.968-6.78-5.55 0-7.152 4.314-7.276 6.78h14.244zm20.719 9.005c.062 3.82 3.269 5.362 6.723 5.362 2.526 0 5.732-.988 5.732-4.07 0-2.65-3.637-3.577-9.925-4.93-5.057-1.113-10.113-2.9-10.113-8.513 0-8.138 7.03-10.234 13.874-10.234 6.969 0 13.38 2.34 14.059 10.173h-8.323c-.247-3.39-2.836-4.315-5.98-4.315-1.973 0-4.869.368-4.869 2.958 0 3.146 4.933 3.577 9.926 4.747 5.118 1.172 10.113 3.02 10.113 8.94 0 8.388-7.277 11.098-14.554 11.098-7.399 0-14.613-2.773-14.981-11.218h8.319v.002zm26.764.86h9.68v9.497c0 5.67-4.317 9.434-9.62 10.233v-4.438c2.59-.432 4.502-3.082 4.378-5.795h-4.438v-9.497zm34.773-34.526h9.681v44.023h-9.681v-44.023zm17.265 12.146h8.324v4.438h.186c2.22-3.577 6.043-5.302 9.74-5.302 9.312 0 11.654 5.242 11.654 13.135v19.607h-8.757V243.93c0-5.238-1.54-7.827-5.609-7.827-4.747 0-6.78 2.65-6.78 9.125v16.71h-8.758V230.06zm58.272 11.222c-.557-3.578-2.838-5.487-6.477-5.487-5.61 0-7.46 5.672-7.46 10.357 0 4.562 1.79 10.05 7.275 10.05 4.068 0 6.41-2.59 6.967-6.475h8.448c-1.112 8.448-6.968 13.07-15.354 13.07-9.618 0-16.095-6.78-16.095-16.337 0-9.93 5.921-17.265 16.28-17.265 7.522 0 14.43 3.945 14.98 12.086h-8.567l.003.001zm14.06 11.158h9.68v9.497h-9.68v-9.497z"/><path fill="#004A97" d="M248.575 148.076V46.4h50c18.75 0 28.964 11.585 28.964 25.914 0 12.653-8.234 21.34-17.684 23.323 10.976 1.676 19.665 12.5 19.665 24.847 0 15.854-10.366 27.592-29.573 27.592h-51.372zm60.67-72.865c0-7.47-5.183-13.11-14.176-13.11h-28.66v26.22h28.66c8.992 0 14.176-5.335 14.176-13.11zm1.983 42.988c0-7.622-5.336-14.177-15.396-14.177h-29.42v28.355h29.42c9.603 0 15.396-5.336 15.396-14.178zm28.512-7.014c0-21.34 15.55-38.565 37.348-38.565 22.104 0 36.128 16.767 36.128 39.938v3.964H356.51c1.22 10.976 9.45 20.273 23.323 20.273 7.316 0 15.7-2.896 21.035-8.23l7.316 10.518c-7.47 7.012-18.292 10.822-29.877 10.822-22.257 0-38.567-15.397-38.567-38.72zm37.195-25.456c-13.568 0-19.97 10.518-20.58 19.358h41.464c-.458-8.69-6.404-19.36-20.885-19.36l.001.002zm49.243 62.347V46.4h16.006v101.676h-16.006zm33.692 0V46.4h16.007v101.676H459.87zm29.27-36.891c0-21.188 14.332-38.565 37.807-38.565 23.479 0 37.807 17.377 37.807 38.565 0 21.037-14.328 38.72-37.807 38.72-23.475 0-37.806-17.683-37.807-38.72zm58.997 0c0-12.956-7.47-24.39-21.189-24.39-13.568 0-21.19 11.434-21.19 24.39 0 13.11 7.623 24.543 21.19 24.543 13.719 0 21.189-11.433 21.189-24.543zm94.363 36.891l-17.226-53.963-17.073 53.963h-16.768L568.566 74.45h16.613l15.551 53.504 17.532-53.505h14.175l17.381 53.504L665.36 74.45h16.772l-22.868 73.626H642.5zm41.624-9.756l7.316-11.433c5.184 5.335 15.397 10.213 24.85 10.213 9.603 0 14.633-3.964 14.633-9.756 0-14.479-44.513-4.115-44.513-32.47 0-12.042 10.367-22.255 28.962-22.255 12.5 0 21.95 4.418 28.51 10.212l-6.71 11.28c-4.42-4.878-12.502-8.84-21.8-8.84-8.38 0-13.564 3.96-13.564 9.145 0 12.958 44.515 3.202 44.515 32.47 0 13.11-10.826 23.018-30.645 23.018-12.655 0-23.932-4.115-31.554-11.584z"/><path fill="#5C6670" d="M771.175 148.076V62.1h-30.79V46.4h79.418v15.7h-30.79v85.976h-17.838zm39.948-36.891c0-21.34 15.545-38.565 37.343-38.565 22.104 0 36.133 16.767 36.133 39.938v3.964h-56.71c1.217 10.976 9.45 20.273 23.32 20.273 7.317 0 15.704-2.896 21.04-8.23l7.317 10.518c-7.471 7.012-18.297 10.822-29.881 10.822-22.254 0-38.563-15.397-38.562-38.72zM848.32 85.73c-13.57 0-19.973 10.518-20.582 19.358H869.2c-.458-8.69-6.4-19.36-20.88-19.36v.002zm44.818 25.455c0-22.255 15.698-38.565 37.954-38.565 14.48 0 23.021 6.097 28.205 13.11l-10.52 9.602c-4.115-5.792-9.758-8.537-16.92-8.537-13.267 0-22.259 10.062-22.259 24.39 0 14.33 8.99 24.543 22.257 24.543 7.163 0 12.806-3.05 16.92-8.84l10.52 9.907c-5.183 6.86-13.723 13.11-28.204 13.11-22.256 0-37.954-16.463-37.953-38.72zm127.292 36.891v-46.34c0-11.586-5.794-14.94-14.786-14.94-8.232 0-15.244 4.877-18.905 9.755v51.525h-16.004V46.4h16.004v37.956c4.878-5.792 14.328-11.736 25.918-11.736 15.85 0 23.777 8.23 23.777 23.323v52.133h-16.004z"/><path fill="#004A97" d="M21.918 72.565c5.765-2.36 11.074-7.43 16.202-12.33 5.63-5.375 10.948-10.444 16.29-11.193 6.26-.866 12.536 3.108 18.607 6.956 5.552 3.515 11.295 7.15 16.626 6.717 6.26-.5 11.958-6.83 17.468-12.932 5.453-6.047 11.084-12.298 17.623-13.436 8.068-1.41 14.153 3.17 20.042 7.602 4.977 3.743 9.684 7.284 15.267 7.038 5.07-.22 8.148-4.162 11.413-8.332 2.16-2.764 4.39-5.582 7.253-7.188C160.07 13.766 132.45 0 101.602 0 54.547 0 14.986 31.993 3.43 75.407c2.986-.842 7.07-1.055 10.063-1.338 3.024-.284 6.15-.577 8.425-1.504z"/><path fill="#004A97" d="M13.535 111.1c1.6-.046 3.1-.11 4.61-.472 7.638-1.866 13.887-7.963 19.934-13.868 5.817-5.673 11.31-11.033 17.358-11.565 6.427-.58 12.27 3.585 17.926 7.603 5.248 3.733 10.208 7.256 15.346 7.046 5.757-.23 11.15-6.047 16.857-12.21 5.85-6.318 11.906-12.86 19.158-14.15 8.522-1.53 14.514 2.92 20.31 7.236 2.917 2.167 5.754 4.28 8.853 5.578-3.885-2.33-7.037-5.968-9.988-9.373-4.355-5.03-8.47-9.777-14.19-10.227-6.36-.49-12.515 4.222-19.038 9.213-6.87 5.268-13.98 10.715-21.973 10.338-6.673-.306-12.184-5.802-17.51-11.11-4.695-4.677-9.13-9.095-13.782-9.408-3.066-.216-7.685 2.896-12.153 5.91-1.954 1.32-3.98 2.674-5.842 3.728-6.624 3.74-13.63 7.29-19.93 7.944-.383.044-.833.096-1.336.175C14.77 83.96 6.772 84.64 2.053 81.2A102.05 102.05 0 0 0 0 101.61c0 4.134.275 8.203.756 12.21l.068-.042c3.973-2.333 9.738-2.565 12.71-2.68l.001.002z"/><path fill="#004A97" d="M177.54 48.4c-4.527 5.43-8.442 10.12-16.434 10.483-7.78.358-13.7-4.448-18.924-8.685-4.445-3.602-8.64-7.008-13.355-6.946-6.776.09-11.762 6.122-17.042 12.5-5.58 6.742-11.346 13.714-19.966 14.855-9.344 1.23-15.84-3.314-22.133-7.72-3.778-2.642-7.685-5.377-12.228-6.88a17.182 17.182 0 0 0-4.875 2.276c7.997-2.582 14.028 3.62 19.905 9.663 4.677 4.807 9.52 9.783 15.39 10.413 7.25.772 14.723-4.69 21.952-9.963 6.936-5.07 13.486-9.85 20-9.588 7.36.29 12.23 5.996 16.932 11.507 4.168 4.882 8.112 9.503 13.418 9.992 4.13.383 7.397-2.446 10.845-5.433 3.066-2.65 6.522-4.536 10.343-6.276 5.75-2.634 12.264-1.596 16.417.233a101.293 101.293 0 0 0-13.91-26.828c-.26.035-.526.057-.76.134-2.135 2.13-3.884 4.227-5.577 6.26l.002.003z"/><path fill="#004A97" d="M195.645 80.287c-2.845-.8-8.36-3.6-12.645-.96-2.794 1.998-4.86 4.695-6.863 7.314-2.83 3.718-5.51 7.228-9.935 8.374-9.83 2.55-16.833-2.874-23.012-7.654-4.7-3.632-9.14-7.072-14.354-6.972-5.63.103-10.905 5.888-16.494 12.012-6.63 7.275-13.493 14.802-22.553 15.34-7.22.444-14.074-4.015-20.122-7.945-5.698-3.71-11.082-7.207-15.623-5.987-1.403.37-2.72 1.195-3.96 2.473 8.842-4.644 16.24 2.522 22.887 8.968 5.02 4.863 10.208 9.896 15.84 10.24 6.49.395 13.528-4.73 20.328-9.69 6.83-4.982 13.892-10.13 20.694-9.86 7.187.3 12.76 6.243 18.153 11.985 4.48 4.78 8.71 9.29 13.127 9.518 3.5.18 8.252-2.376 11.615-6.155 6.26-7.043 11.875-7.278 22.016-5.682 4.66.73 7.036 2.045 8.16 3.645.19-2.523.316-5.063.316-7.634 0-7.358-.8-14.527-2.287-21.443-1.417.64-3.346.66-5.29.117l.002-.004z"/><path fill="#004A97" d="M19.082 147.774c5.732-1.708 10.555-5.895 15.67-10.326.83-.723 1.67-1.452 2.522-2.183 1.017-.86 2.146-1.866 3.325-2.936 5.02-4.504 10.71-9.607 14.83-10.005 7.43-.715 12.83 3.498 18.054 7.575 4.797 3.744 9.322 7.275 15.236 7.08 6.035-.203 11.336-6.135 16.95-12.412 6.207-6.958 12.63-14.155 21.093-14.95 7.722-.723 13.132 3.704 18.362 7.985 2.993 2.45 5.903 4.83 9.158 6.14-3.943-2.243-7.104-6-10.212-9.682-4.117-4.884-8.015-9.5-13.433-10.232-6.453-.87-13.462 4.37-20.238 9.442-6.728 5.038-13.68 10.233-20.688 10.114-7.065-.125-12.796-5.736-18.353-11.172-4.748-4.645-9.238-9.038-13.944-9.35-4.46-.3-10.516 3.504-16.918 7.52-7.15 4.493-15.26 9.577-23.02 10.065-.307.017-.69.06-1.132.11-3.403.36-12.146 1.142-15.245-4.018a100.895 100.895 0 0 0 10.34 31.91c.377-.012.752-.023 1.13-.03 2.3-.053 4.68-.1 6.513-.645z"/><path fill="#004A97" d="M184.856 149.74c-2.51 1.593-4.71 3.334-6.84 5.015-6.457 5.104-12.025 9.514-22.115 6.703-5.225-1.463-9.344-6.214-13.332-10.796-4.177-4.814-8.125-9.36-12.848-9.688-5.844-.415-11.83 4.126-18.164 8.935-7.132 5.396-14.498 10.985-22.856 10.603-7.056-.333-12.524-5.867-17.806-11.227-4.526-4.596-8.8-8.936-13.493-9.304-2.903-.215-7.975 3.163-12.45 6.138-1.978 1.318-3.847 2.565-5.537 3.515-6.453 3.64-13.316 7.254-19.93 7.938-.366.04-.79.102-1.283.172-.356.052-.76.106-1.183.16 18.213 27.32 49.292 45.326 84.586 45.326 38.007 0 71.12-20.88 88.55-51.783-.752-.202-1.53-.497-2.303-.813-1.068-.43-2.258-.917-2.994-.895l-.002.001z"/><path fill="#004A97" d="M197.59 116.92c-1.3-.425-2.64-.856-3.532-.55-5.31-.66-10.674-1.147-17.406 6.7-4.776 5.563-9.583 10.557-20.61 9.094-4.836-.644-9.288-4.173-13.582-7.576-4.655-3.684-9.043-7.166-13.623-7.076-5.707.12-11.044 6-16.7 12.23-6.357 7.006-12.935 14.254-21.33 15.125-6.42.68-13.232-3.83-19.805-8.173-5.093-3.373-9.91-6.56-13.503-6.473-3.516.083-5.265 1.97-7.677 4.597a.142.142 0 0 0-.033.036c.112-.063.22-.128.32-.188 2.517-1.506 4.503-2.696 7.418-2.565 5.62.23 10.68 5.335 15.564 10.283 4.71 4.765 9.572 9.682 14.786 10.244 7.38.78 14.924-4.688 22.224-9.982 7.184-5.215 13.978-10.14 20.753-9.568 6.884.58 11.583 6.064 16.127 11.364 4.354 5.085 8.468 9.885 14.124 10.13 3.75.16 7.034-2.584 10.503-5.484 3.28-2.746 6.667-5.584 10.787-6.228l.5-.085c2.09-.373 6.447-1.138 9.21 1.072.515.41.912.92 1.25 1.482a100.94 100.94 0 0 0 8.673-28.113c-1.264.71-2.874.22-4.44-.293l.002-.003z"/><path fill="#FFF" d="M194.746 105.602c-10.14-1.597-15.755-1.362-22.017 5.682-3.363 3.78-8.117 6.336-11.616 6.156-4.416-.23-8.647-4.737-13.127-9.518-5.394-5.742-10.966-11.686-18.153-11.986-6.802-.268-13.863 4.88-20.694 9.862-6.8 4.958-13.84 10.083-20.33 9.688-5.63-.344-10.82-5.376-15.838-10.24-6.647-6.445-14.044-13.61-22.886-8.966 1.24-1.277 2.557-2.102 3.96-2.473 4.54-1.22 9.924 2.278 15.622 5.987 6.047 3.93 12.902 8.39 20.12 7.944 9.06-.538 15.923-8.064 22.554-15.34 5.59-6.123 10.862-11.908 16.494-12.01 5.213-.102 9.653 3.338 14.354 6.97 6.178 4.782 13.182 10.204 23.012 7.655 4.423-1.146 7.104-4.656 9.935-8.373 2.002-2.62 4.07-5.317 6.863-7.313 4.285-2.64 9.8.16 12.645.96 1.944.543 3.873.52 5.29-.12a101.142 101.142 0 0 0-3.15-11.336c-4.153-1.828-10.665-2.866-16.416-.23-3.82 1.74-7.277 3.625-10.344 6.275-3.448 2.987-6.714 5.815-10.845 5.432-5.305-.488-9.25-5.11-13.417-9.992-4.703-5.51-9.572-11.217-16.932-11.508-6.513-.262-13.064 4.52-20 9.588-7.228 5.272-14.7 10.736-21.952 9.962-5.87-.63-10.71-5.605-15.39-10.413C66.613 61.9 60.582 55.7 52.585 58.28a17.122 17.122 0 0 1 4.874-2.276c4.543 1.503 8.45 4.24 12.228 6.88 6.293 4.407 12.79 8.95 22.132 7.72 8.62-1.14 14.385-8.112 19.966-14.854 5.28-6.377 10.266-12.408 17.042-12.5 4.714-.062 8.91 3.344 13.355 6.946 5.224 4.236 11.145 9.042 18.925 8.685 7.992-.362 11.906-5.05 16.434-10.483 1.692-2.032 3.44-4.13 5.577-6.26.232-.078.5-.1.76-.135-1.634-2.25-3.36-4.43-5.17-6.536-2.863 1.606-5.09 4.424-7.252 7.188-3.264 4.17-6.344 8.11-11.413 8.332-5.583.246-10.29-3.295-15.267-7.04-5.888-4.43-11.974-9.012-20.042-7.6-6.54 1.137-12.17 7.388-17.622 13.435-5.51 6.104-11.207 12.433-17.467 12.933-5.33.433-11.074-3.203-16.626-6.717-6.072-3.848-12.348-7.822-18.608-6.956-5.34.75-10.66 5.818-16.29 11.194-5.128 4.9-10.437 9.97-16.202 12.33-2.277.927-5.402 1.22-8.425 1.503-2.992.284-7.078.497-10.064 1.338a99.164 99.164 0 0 0-1.378 5.79c4.72 3.442 12.717 2.76 16.094 2.29.503-.08.954-.132 1.335-.176 6.302-.656 13.31-4.205 19.932-7.945 1.86-1.053 3.89-2.408 5.842-3.728 4.47-3.014 9.087-6.125 12.153-5.91 4.653.312 9.087 4.73 13.78 9.408 5.328 5.308 10.84 10.804 17.51 11.11 7.993.376 15.103-5.07 21.974-10.337 6.523-4.99 12.68-9.703 19.04-9.213 5.72.45 9.834 5.197 14.19 10.227 2.95 3.404 6.102 7.042 9.987 9.373-3.1-1.3-5.935-3.41-8.853-5.578-5.796-4.315-11.788-8.766-20.31-7.237-7.252 1.29-13.308 7.833-19.158 14.152-5.707 6.162-11.1 11.98-16.857 12.21-5.14.21-10.1-3.313-15.347-7.047-5.656-4.017-11.5-8.182-17.926-7.603-6.047.532-11.54 5.892-17.36 11.565-6.046 5.905-12.295 12.002-19.932 13.868-1.512.363-3.01.426-4.61.472-2.974.115-8.74.347-12.712 2.68l-.068.04c.107.91.212 1.82.345 2.72 3.1 5.16 11.842 4.376 15.245 4.016.442-.05.826-.093 1.132-.11 7.76-.487 15.87-5.57 23.02-10.063 6.402-4.017 12.458-7.82 16.918-7.52 4.706.31 9.196 4.704 13.943 9.35 5.557 5.435 11.287 11.046 18.353 11.17 7.01.12 13.96-5.075 20.688-10.113 6.776-5.073 13.785-10.312 20.238-9.442 5.418.73 9.316 5.35 13.434 10.233 3.108 3.682 6.27 7.44 10.212 9.683-3.255-1.31-6.165-3.69-9.158-6.14-5.23-4.28-10.64-8.708-18.362-7.984-8.464.794-14.886 7.99-21.092 14.95-5.615 6.276-10.916 12.208-16.95 12.41-5.915.197-10.44-3.334-15.237-7.08-5.223-4.076-10.625-8.29-18.055-7.574-4.12.398-9.81 5.5-14.83 10.004-1.18 1.07-2.31 2.077-3.325 2.936-.853.73-1.69 1.46-2.523 2.183-5.114 4.432-9.938 8.618-15.67 10.326-1.832.547-4.212.594-6.512.646-.377.008-.752.02-1.128.03a101.93 101.93 0 0 0 5.575 9.458c.423-.055.827-.11 1.183-.16.492-.07.917-.132 1.282-.173 6.615-.684 13.48-4.297 19.93-7.937 1.69-.95 3.56-2.196 5.54-3.515 4.473-2.975 9.545-6.353 12.45-6.138 4.693.368 8.966 4.708 13.492 9.304 5.282 5.36 10.75 10.894 17.806 11.227 8.36.383 15.724-5.206 22.856-10.603 6.335-4.81 12.32-9.35 18.164-8.935 4.722.327 8.67 4.873 12.848 9.688 3.988 4.582 8.108 9.333 13.333 10.796 10.09 2.81 15.658-1.6 22.113-6.703 2.13-1.68 4.332-3.422 6.84-5.016.737-.02 1.927.464 2.994.896.773.316 1.55.61 2.304.813a101.344 101.344 0 0 0 3.204-6.12c-.337-.563-.734-1.073-1.25-1.483-2.762-2.21-7.12-1.445-9.21-1.072l-.5.086c-4.118.644-7.505 3.48-10.787 6.228-3.47 2.9-6.754 5.644-10.503 5.485-5.656-.247-9.77-5.047-14.124-10.13-4.544-5.3-9.243-10.786-16.127-11.365-6.776-.573-13.57 4.353-20.753 9.568-7.3 5.294-14.844 10.763-22.224 9.982-5.214-.562-10.074-5.48-14.786-10.244-4.884-4.947-9.945-10.053-15.564-10.282-2.915-.13-4.9 1.06-7.417 2.565-.1.06-.21.125-.322.188a.137.137 0 0 1 .033-.035c2.413-2.628 4.163-4.514 7.677-4.596 3.594-.088 8.41 3.1 13.503 6.472 6.573 4.342 13.386 8.853 19.804 8.173 8.396-.87 14.974-8.118 21.33-15.124 5.657-6.23 10.994-12.11 16.7-12.23 4.58-.09 8.968 3.392 13.624 7.076 4.294 3.403 8.746 6.932 13.583 7.576 11.027 1.462 15.834-3.53 20.61-9.093 6.732-7.85 12.097-7.363 17.406-6.703.89-.306 2.232.125 3.533.552 1.564.512 3.174 1 4.437.29.404-2.62.678-5.283.877-7.966-1.122-1.597-3.497-2.912-8.158-3.642l-.002-.005z"/></svg>