<?xml version="1.0" encoding="utf-8"?>
<!-- Generator: Adobe Illustrator 15.1.0, SVG Export Plug-In  -->
<!DOCTYPE svg PUBLIC "-//W3C//DTD SVG 1.1//EN" "http://www.w3.org/Graphics/SVG/1.1/DTD/svg11.dtd" [
	<!ENTITY ns_flows "http://ns.adobe.com/Flows/1.0/">
]>
<svg version="1.1"
	 xmlns="http://www.w3.org/2000/svg" xmlns:xlink="http://www.w3.org/1999/xlink" xmlns:a="http://ns.adobe.com/AdobeSVGViewerExtensions/3.0/"
	 x="0px" y="0px" width="1011px" height="273px" viewBox="-1 -0.836 1011 273"
	 overflow="visible" enable-background="new -1 -0.836 1011 273" xml:space="preserve">
<defs>
</defs>
<polygon points="248.559,217.906 262.186,217.906 272.482,248.18 272.606,248.18 282.347,217.906 295.975,217.906 295.975,261.931 
	286.91,261.931 286.91,230.729 286.788,230.729 275.998,261.931 268.536,261.931 257.746,231.037 257.622,231.037 257.622,261.931 
	248.559,261.931 "/>
<polygon points="346.417,261.931 336.798,261.931 329.336,231.962 329.214,231.962 321.876,261.931 312.073,261.931 
	300.419,217.906 310.1,217.906 317.067,247.87 317.189,247.87 324.836,217.906 333.9,217.906 341.423,248.242 341.545,248.242 
	348.758,217.906 358.256,217.906 "/>
<rect x="379.842" y="217.907" width="9.681" height="44.023"/>
<g>
	<defs>
		<rect id="SVGID_1_" x="0" width="1009.854" height="272.164"/>
	</defs>
	<clipPath id="SVGID_2_">
		<use xlink:href="#SVGID_1_"  overflow="visible"/>
	</clipPath>
	<path clip-path="url(#SVGID_2_)" d="M397.109,230.053h8.324v4.438h0.185c2.219-3.577,6.043-5.302,9.741-5.302
		c9.311,0,11.654,5.241,11.654,13.135v19.605h-8.755v-18.005c0-5.238-1.542-7.829-5.611-7.829c-4.748,0-6.783,2.65-6.783,9.125
		v16.709h-8.755V230.053z"/>
	<path clip-path="url(#SVGID_2_)" d="M456.427,257.859h-0.124c-2.035,3.454-5.611,4.932-9.681,4.932
		c-9.617,0-14.304-8.261-14.304-17.077c0-8.573,4.749-16.525,14.12-16.525c3.762,0,7.46,1.605,9.433,4.747h0.124v-16.028h8.755
		v44.022h-8.323V257.859z M448.781,235.788c-5.735,0-7.708,4.931-7.708,10.174c0,4.991,2.281,10.233,7.708,10.233
		c5.795,0,7.522-5.055,7.522-10.298C456.303,240.719,454.454,235.788,448.781,235.788"/>
	<path clip-path="url(#SVGID_2_)" d="M501.255,261.931h-8.324v-4.439h-0.185c-2.219,3.575-6.043,5.3-9.743,5.3
		c-9.309,0-11.652-5.24-11.652-13.132v-19.605h8.755v18.002c0,5.241,1.543,7.832,5.611,7.832c4.748,0,6.783-2.654,6.783-9.125
		v-16.709h8.755V261.931z"/>
	<path clip-path="url(#SVGID_2_)" d="M514.698,251.572c0.062,3.822,3.269,5.363,6.722,5.363c2.527,0,5.733-0.988,5.733-4.07
		c0-2.649-3.638-3.578-9.926-4.931c-5.057-1.112-10.113-2.901-10.113-8.512c0-8.138,7.03-10.234,13.873-10.234
		c6.968,0,13.38,2.342,14.059,10.174h-8.323c-0.248-3.39-2.837-4.314-5.981-4.314c-1.973,0-4.871,0.368-4.871,2.958
		c0,3.146,4.934,3.577,9.927,4.747c5.118,1.172,10.112,3.021,10.112,8.939c0,8.389-7.275,11.099-14.552,11.099
		c-7.399,0-14.613-2.773-14.981-11.219H514.698z"/>
	<path clip-path="url(#SVGID_2_)" d="M552.127,230.053h6.414v5.855h-6.414v15.785c0,2.961,0.74,3.702,3.7,3.702
		c0.925,0,1.787-0.064,2.714-0.248v6.843c-1.48,0.248-3.392,0.308-5.119,0.308c-5.363,0-10.05-1.231-10.05-7.584v-18.806h-5.302
		v-5.855h5.302v-9.557h8.755V230.053z"/>
	<path clip-path="url(#SVGID_2_)" d="M562.736,230.053h8.323v5.919h0.123c1.603-4.01,5.919-6.782,10.173-6.782
		c0.616,0,1.357,0.124,1.911,0.308v8.14c-0.801-0.188-2.095-0.308-3.144-0.308c-6.413,0-8.632,4.623-8.632,10.233v14.367h-8.755
		V230.053z"/>
	<path clip-path="url(#SVGID_2_)" d="M595.724,225.118h-8.757v-7.212h8.757V225.118z M586.968,230.053h8.757v31.877h-8.757V230.053z
		"/>
	<path clip-path="url(#SVGID_2_)" d="M609.844,248.119c0.247,5.547,2.96,8.076,7.831,8.076c3.514,0,6.351-2.157,6.904-4.13h7.708
		c-2.467,7.52-7.708,10.726-14.921,10.726c-10.05,0-16.276-6.904-16.276-16.77c0-9.557,6.597-16.832,16.276-16.832
		c10.852,0,16.093,9.125,15.477,18.93H609.844z M624.088,242.568c-0.803-4.439-2.713-6.78-6.969-6.78
		c-5.549,0-7.151,4.314-7.275,6.78H624.088z"/>
	<path clip-path="url(#SVGID_2_)" d="M644.807,251.572c0.062,3.822,3.268,5.363,6.722,5.363c2.527,0,5.733-0.988,5.733-4.07
		c0-2.649-3.639-3.578-9.926-4.931c-5.057-1.112-10.113-2.901-10.113-8.512c0-8.138,7.03-10.234,13.873-10.234
		c6.968,0,13.381,2.342,14.058,10.174h-8.323c-0.248-3.39-2.837-4.314-5.98-4.314c-1.973,0-4.87,0.368-4.87,2.958
		c0,3.146,4.932,3.577,9.925,4.747c5.119,1.172,10.113,3.021,10.113,8.939c0,8.389-7.276,11.099-14.551,11.099
		c-7.4,0-14.614-2.773-14.983-11.219H644.807z"/>
	<path clip-path="url(#SVGID_2_)" d="M671.569,252.434h9.682v9.497c0,5.671-4.318,9.433-9.621,10.233v-4.438
		c2.589-0.433,4.502-3.082,4.378-5.795h-4.438V252.434z"/>
	<rect x="706.344" y="217.907" clip-path="url(#SVGID_2_)" width="9.682" height="44.023"/>
	<path clip-path="url(#SVGID_2_)" d="M723.609,230.053h8.325v4.438h0.184c2.222-3.577,6.043-5.302,9.741-5.302
		c9.313,0,11.654,5.241,11.654,13.135v19.605h-8.756v-18.005c0-5.238-1.541-7.829-5.611-7.829c-4.747,0-6.78,2.65-6.78,9.125v16.709
		h-8.757V230.053z"/>
	<path clip-path="url(#SVGID_2_)" d="M781.88,241.274c-0.557-3.577-2.837-5.486-6.476-5.486c-5.61,0-7.46,5.671-7.46,10.357
		c0,4.562,1.789,10.05,7.276,10.05c4.068,0,6.411-2.59,6.967-6.476h8.449c-1.113,8.449-6.968,13.071-15.356,13.071
		c-9.618,0-16.093-6.78-16.093-16.337c0-9.93,5.919-17.266,16.28-17.266c7.521,0,14.428,3.946,14.98,12.086H781.88z"/>
	<rect x="795.94" y="252.433" clip-path="url(#SVGID_2_)" width="9.681" height="9.497"/>
	<path clip-path="url(#SVGID_2_)" fill="#005189" d="M80.317,182.06c21.398-0.476,30.725-3.957,34.917-16.068
		c4.432-12.804-4.049-26.783-4.049-26.783l40.878-0.535v-17.027c0,0,27.178,5.447,27.178,34.216c0,6.195-1.437,11.263-3.684,15.408
		c17.143-18.191,27.668-42.686,27.668-69.657c0-32.199-14.995-60.879-38.363-79.496c-14.34-0.076-34.12-0.12-44.919,0.119
		c-21.398,0.475-30.725,3.957-34.917,16.068c-4.432,12.804,4.048,26.782,4.048,26.782L48.196,65.62v17.028
		c0,0-27.177-5.447-27.177-34.215c0-4.098,0.642-7.688,1.716-10.86C8.529,55.052,0,77.332,0,101.612
		c0,32.837,15.587,62.013,39.746,80.586C53.519,182.262,70.572,182.275,80.317,182.06"/>
	<path clip-path="url(#SVGID_2_)" fill="#005189" d="M50.09,189.188c15.108,8.907,32.709,14.038,51.517,14.038
		c20.609,0,39.773-6.151,55.79-16.696c-5.072,2.066-9.026,2.658-9.026,2.658H50.09z"/>
	<path clip-path="url(#SVGID_2_)" fill="#005189" d="M154.918,15.107C139.419,5.535,121.162,0,101.607,0
		C81.046,0,61.923,6.127,45.929,16.63c3.515-1.161,5.96-1.523,5.96-1.523H154.918z"/>
	<path clip-path="url(#SVGID_2_)" fill="#FFFFFF" d="M48.196,82.648V65.62l40.878-0.535c0,0-8.48-13.978-4.048-26.782
		c4.191-12.111,13.519-15.593,34.916-16.068c10.8-0.239,30.579-0.195,44.92-0.119c-3.17-2.524-6.484-4.872-9.944-7.009H51.888
		c0,0-2.445,0.362-5.96,1.523c-8.769,5.757-16.596,12.827-23.193,20.943c-1.074,3.172-1.716,6.762-1.716,10.86
		C21.019,77.201,48.196,82.648,48.196,82.648"/>
	<path clip-path="url(#SVGID_2_)" fill="#FFFFFF" d="M175.557,171.27c2.247-4.146,3.684-9.214,3.684-15.408
		c0-28.769-27.178-34.216-27.178-34.216v17.028l-40.878,0.535c0,0,8.481,13.979,4.049,26.783
		c-4.192,12.111-13.519,15.593-34.917,16.067c-9.745,0.217-26.798,0.202-40.571,0.14c3.294,2.536,6.747,4.869,10.344,6.989h98.281
		c0,0,3.955-0.593,9.026-2.658C164.037,182.16,170.126,177.033,175.557,171.27"/>
	<path clip-path="url(#SVGID_2_)" fill="#005189" d="M243.215,133.709l10.081-13.898c6.873,7.482,18.023,14.204,32.227,14.204
		c14.663,0,20.314-7.179,20.314-14.051c0-21.385-59.261-8.096-59.261-45.516c0-16.954,14.662-29.937,37.114-29.937
		c15.731,0,28.714,5.193,38.031,14.357L311.64,72.157c-8.094-8.095-18.939-11.76-29.631-11.76c-10.384,0-17.106,5.193-17.106,12.678
		c0,19.091,59.261,7.331,59.261,45.208c0,16.954-12.065,31.616-39.405,31.616C265.973,149.898,252.379,143.179,243.215,133.709"/>
	<path clip-path="url(#SVGID_2_)" fill="#005189" d="M332.572,111.104c0-21.383,15.578-38.642,37.419-38.642
		c22.146,0,36.198,16.801,36.198,40.017v3.971h-56.817c1.222,10.996,9.47,20.314,23.368,20.314c7.331,0,15.732-2.902,21.077-8.248
		l7.333,10.539c-7.485,7.025-18.329,10.844-29.937,10.844C348.914,149.899,332.572,134.474,332.572,111.104 M369.838,85.599
		c-13.593,0-20.009,10.538-20.618,19.397h41.543C390.305,96.29,384.348,85.599,369.838,85.599"/>
	<path clip-path="url(#SVGID_2_)" fill="#005189" d="M415.97,148.067V74.295h16.036v10.692c5.652-7.025,14.51-12.524,23.98-12.524
		v15.884c-1.374-0.305-2.901-0.457-4.888-0.457c-6.873,0-15.884,4.582-19.092,9.928v50.25H415.97z"/>
	<polygon clip-path="url(#SVGID_2_)" fill="#005189" points="489.591,148.067 459.5,74.295 476.76,74.295 498.296,129.586 
		519.831,74.295 536.938,74.295 506.849,148.067 	"/>
	<path clip-path="url(#SVGID_2_)" fill="#005189" d="M536.482,111.104c0-21.23,14.357-38.642,37.881-38.642
		c23.521,0,37.877,17.412,37.877,38.642c0,21.077-14.356,38.795-37.877,38.795C550.839,149.899,536.482,132.181,536.482,111.104
		 M595.591,111.104c0-12.983-7.483-24.438-21.229-24.438c-13.596,0-21.231,11.455-21.231,24.438c0,13.136,7.636,24.59,21.231,24.59
		C588.108,135.694,595.591,124.24,595.591,111.104"/>
	<path clip-path="url(#SVGID_2_)" fill="#5D6770" d="M713.047,148.067V99.956c0-7.943-3.513-13.289-12.219-13.289
		c-7.179,0-13.897,4.887-17.106,9.775v51.625h-16.035V99.956c0-7.943-3.362-13.289-12.068-13.289c-7.177,0-13.745,5.04-17.104,9.775
		v51.625h-16.037V74.295h16.037v9.928c3.207-4.429,12.829-11.76,24.132-11.76c10.995,0,17.717,5.499,20.162,13.44
		c4.123-6.567,13.897-13.44,25.046-13.44c13.443,0,21.23,7.331,21.23,22.299v53.306H713.047z"/>
	<path clip-path="url(#SVGID_2_)" fill="#5D6770" d="M739.33,111.104c0-21.383,15.579-38.642,37.419-38.642
		c22.148,0,36.199,16.801,36.199,40.017v3.971h-56.819c1.224,10.996,9.47,20.314,23.371,20.314c7.329,0,15.729-2.902,21.075-8.248
		l7.333,10.539c-7.486,7.025-18.33,10.844-29.938,10.844C755.669,149.899,739.33,134.474,739.33,111.104 M776.595,85.599
		c-13.593,0-20.008,10.538-20.62,19.397h41.546C797.063,96.29,791.106,85.599,776.595,85.599"/>
	<path clip-path="url(#SVGID_2_)" fill="#5D6770" d="M826.087,130.807V88.193h-12.217V74.295h12.217V54.134h16.038v20.161h14.968
		v13.898h-14.968v38.643c0,5.041,2.442,8.858,7.024,8.858c3.056,0,5.804-1.374,7.026-2.749l3.818,12.219
		c-2.901,2.598-7.636,4.735-14.968,4.735C832.503,149.899,826.087,143.18,826.087,130.807"/>
	<path clip-path="url(#SVGID_2_)" fill="#5D6770" d="M860.912,111.104c0-21.383,15.579-38.642,37.419-38.642
		c22.148,0,36.199,16.801,36.199,40.017v3.971H877.71c1.224,10.996,9.47,20.314,23.371,20.314c7.329,0,15.729-2.902,21.075-8.248
		l7.333,10.539c-7.486,7.025-18.328,10.844-29.938,10.844C877.251,149.899,860.912,134.474,860.912,111.104 M898.177,85.599
		c-13.593,0-20.008,10.538-20.62,19.397h41.546C918.645,96.29,912.688,85.599,898.177,85.599"/>
	<path clip-path="url(#SVGID_2_)" fill="#5D6770" d="M944.31,148.067V74.295h16.038v10.692c5.649-7.025,14.51-12.524,23.979-12.524
		v15.884c-1.375-0.305-2.904-0.457-4.888-0.457c-6.875,0-15.886,4.582-19.092,9.928v50.25H944.31z"/>
	<path clip-path="url(#SVGID_2_)" fill="#005189" d="M151.692,109.826c-0.276,12.387-10.176,13.566-15.656,13.566l-78.42,4.145
		c-5.474,0-5.752-4.571-5.752-10.345V90.95c-0.286-13.857,7.942-16.212,13.422-16.212l76.901-4.397c5.48,0,9.913,4.683,9.913,10.446
		L151.692,109.826z"/>
	<path clip-path="url(#SVGID_2_)" fill="#FFFFFF" d="M149.236,69.135v66.646h-12.628v-10.52c0,0-0.527-4.56-5.437-2.107V80.356
		c0,0,5.261,4.915,5.261-1.752v-9.649L149.236,69.135z"/>
	<path clip-path="url(#SVGID_2_)" fill="#FFFFFF" d="M128.353,69.659v66.122h-2.63v-10.52c0,0-0.525-4.563-5.436-2.107V80.356
		c0,0,5.262,4.915,5.262-1.751v-9.121L128.353,69.659z"/>
	<path clip-path="url(#SVGID_2_)" fill="#FFFFFF" d="M117.643,69.659v66.122h-2.632v-10.52c0,0-0.523-4.563-5.435-2.107V80.356
		c0,0,5.261,4.915,5.261-1.751v-9.121L117.643,69.659z"/>
	<path clip-path="url(#SVGID_2_)" fill="#FFFFFF" d="M106.782,69.659v66.122h-2.629v-10.52c0,0-0.527-4.563-5.438-2.107V80.356
		c0,0,5.262,4.915,5.262-1.751v-9.121L106.782,69.659z"/>
	<path clip-path="url(#SVGID_2_)" fill="#FFFFFF" d="M95.905,69.659v66.122h-2.628v-10.52c0,0-0.527-4.563-5.438-2.107V80.356
		c0,0,5.262,4.915,5.262-1.751v-9.121L95.905,69.659z"/>
	<path clip-path="url(#SVGID_2_)" fill="#FFFFFF" d="M85.026,69.659v66.122h-2.628v-10.52c0,0-0.527-4.563-5.437-2.107V80.356
		c0,0,5.261,4.915,5.261-1.751v-9.121L85.026,69.659z"/>
	<path clip-path="url(#SVGID_2_)" fill="#FFFFFF" d="M74.166,69.659v66.122h-2.631v-10.52c0,0-0.526-4.563-5.437-2.107V80.356
		c0,0,5.261,4.915,5.261-1.751v-9.121L74.166,69.659z"/>
	<rect x="51.013" y="68.606" clip-path="url(#SVGID_2_)" fill="#FFFFFF" width="12.28" height="67.006"/>
	<path clip-path="url(#SVGID_2_)" fill="#5D6770" d="M1009.855,79.472c0,5.579-4.38,9.959-10.079,9.959
		c-5.641,0-10.141-4.38-10.141-9.959c0-5.46,4.5-9.84,10.141-9.84C1005.475,69.631,1009.855,74.012,1009.855,79.472 M992.156,79.472
		c0,4.38,3.24,7.859,7.68,7.859c4.32,0,7.5-3.479,7.5-7.8c0-4.379-3.18-7.919-7.56-7.919S992.156,75.151,992.156,79.472
		 M998.215,84.63h-2.279v-9.839c0.899-0.18,2.159-0.301,3.778-0.301c1.861,0,2.701,0.301,3.42,0.721
		c0.54,0.42,0.96,1.199,0.96,2.159c0,1.08-0.84,1.92-2.039,2.281v0.12c0.959,0.36,1.5,1.08,1.801,2.399
		c0.3,1.5,0.479,2.101,0.72,2.46h-2.46c-0.3-0.359-0.481-1.26-0.78-2.399c-0.18-1.08-0.78-1.56-2.04-1.56h-1.08V84.63z
		 M998.276,79.052h1.08c1.26,0,2.278-0.42,2.278-1.44c0-0.9-0.658-1.5-2.099-1.5c-0.6,0-1.02,0.06-1.26,0.12V79.052z"/>
</g>
</svg>
